<svg xmlns="http://www.w3.org/2000/svg" version="1.1" xmlns:xlink="http://www.w3.org/1999/xlink" viewBox="0 0 200 200"><rect width="200" height="200" fill="url('#gradient')"></rect><defs><linearGradient id="gradient" gradientTransform="rotate(45 0.5 0.5)"><stop offset="0%" stop-color="#bdd3a4"></stop><stop offset="100%" stop-color="#0e3e3e"></stop></linearGradient></defs><g><g fill="#0e3e3e" transform="matrix(3.0700811992504686,0,0,3.0700811992504686,23.984049806529313,122.7361772901784)" stroke="#216f5f" stroke-width="1.3"><path d="M4.73-14.22L4.73 0L1.31 0L1.31-14.22L4.73-14.22ZM13.51 0L11.20-3.94L10.27-3.01L10.27 0L6.98 0L6.98-15.01L10.27-15.01L10.27-7.04L10.61-7.48L13.09-10.57L17.03-10.57L13.33-6.22L17.28 0L13.51 0ZM27.14 0L23.85 0Q23.67-0.32 23.54-0.95L23.54-0.95Q22.63 0.20 21.00 0.20L21.00 0.20Q19.50 0.20 18.46-0.71Q17.41-1.61 17.41-2.98L17.41-2.98Q17.41-4.70 18.68-5.58Q19.95-6.46 22.37-6.46L22.37-6.46L23.39-6.46L23.39-7.01Q23.39-8.47 22.13-8.47L22.13-8.47Q20.96-8.47 20.96-7.31L20.96-7.31L17.67-7.31Q17.67-8.85 18.97-9.80Q20.27-10.76 22.29-10.76Q24.32-10.76 25.49-9.78Q26.66-8.79 26.69-7.07L26.69-7.07L26.69-2.39Q26.71-0.94 27.14-0.17L27.14-0.17L27.14 0ZM21.79-2.15L21.79-2.15Q22.40-2.15 22.81-2.41Q23.21-2.68 23.39-3.01L23.39-3.01L23.39-4.70L22.43-4.70Q20.71-4.70 20.71-3.15L20.71-3.15Q20.71-2.71 21.02-2.43Q21.32-2.15 21.79-2.15ZM37.10-8.79L32.39-2.54L37.21-2.54L37.21 0L28.23 0L28.23-1.84L32.92-8.03L28.44-8.03L28.44-10.57L37.10-10.57L37.10-8.79ZM43.76 0.20L43.76 0.20Q41.33 0.20 39.82-1.25Q38.32-2.71 38.32-5.03L38.32-5.03L38.32-5.30Q38.32-6.92 38.92-8.16Q39.52-9.40 40.67-10.08Q41.83-10.76 43.41-10.76L43.41-10.76Q45.63-10.76 46.92-9.38Q48.21-8.00 48.21-5.53L48.21-5.53L48.21-4.25L41.67-4.25Q41.85-3.36 42.44-2.85Q43.04-2.34 43.98-2.34L43.98-2.34Q45.55-2.34 46.43-3.44L46.43-3.44L47.93-1.66Q47.31-0.81 46.19-0.31Q45.06 0.20 43.76 0.20ZM43.39-8.22L43.39-8.22Q41.94-8.22 41.67-6.31L41.67-6.31L44.99-6.31L44.99-6.56Q45.01-7.35 44.59-7.79Q44.17-8.22 43.39-8.22Z"></path></g></g></svg>